<?xml version="1.0" standalone="no"?><svg xmlns="http://www.w3.org/2000/svg" viewBox="0 0 1440 320"><path fill="#0099ff" fill-opacity="1" d="M0,32L24,37.3C48,43,96,53,144,90.7C192,128,240,192,288,213.3C336,235,384,213,432,202.7C480,192,528,192,576,202.7C624,213,672,235,720,229.3C768,224,816,192,864,165.3C912,139,960,117,1008,133.3C1056,149,1104,203,1152,218.7C1200,235,1248,213,1296,197.3C1344,181,1392,171,1416,165.3L1440,160L1440,320L1416,320C1392,320,1344,320,1296,320C1248,320,1200,320,1152,320C1104,320,1056,320,1008,320C960,320,912,320,864,320C816,320,768,320,720,320C672,320,624,320,576,320C528,320,480,320,432,320C384,320,336,320,288,320C240,320,192,320,144,320C96,320,48,320,24,320L0,320Z"></path></svg>