<?xml version="1.0" standalone="no"?><svg xmlns="http://www.w3.org/2000/svg" viewBox="0 0 1440 320"><path fill="#fff" fill-opacity="1" d="M0,288L24,282.7C48,277,96,267,144,250.7C192,235,240,213,288,192C336,171,384,149,432,149.3C480,149,528,171,576,192C624,213,672,235,720,224C768,213,816,171,864,170.7C912,171,960,213,1008,224C1056,235,1104,213,1152,176C1200,139,1248,85,1296,64C1344,43,1392,53,1416,58.7L1440,64L1440,320L1416,320C1392,320,1344,320,1296,320C1248,320,1200,320,1152,320C1104,320,1056,320,1008,320C960,320,912,320,864,320C816,320,768,320,720,320C672,320,624,320,576,320C528,320,480,320,432,320C384,320,336,320,288,320C240,320,192,320,144,320C96,320,48,320,24,320L0,320Z"></path></svg>